<mxfile host="app.diagrams.net" modified="2020-07-09T08:58:33.484Z" agent="5.0 (Macintosh; Intel Mac OS X 10_14_6) AppleWebKit/537.36 (KHTML, like Gecko) Chrome/83.0.4103.106 Safari/537.36" etag="IEI4bxW1ayF_1jcZWxp0" version="13.4.0" type="github">
  <diagram id="kgpKYQtTHZ0yAKxKKP6v" name="Page-1">
    <mxGraphModel dx="2276" dy="764" grid="1" gridSize="10" guides="1" tooltips="1" connect="1" arrows="1" fold="1" page="1" pageScale="1" pageWidth="850" pageHeight="1100" math="0" shadow="0">
      <root>
        <mxCell id="0" />
        <mxCell id="1" parent="0" />
        <mxCell id="3nuBFxr9cyL0pnOWT2aG-1" value="快递员(pdd小程序)" style="shape=umlLifeline;perimeter=lifelinePerimeter;container=1;collapsible=0;recursiveResize=0;rounded=0;shadow=0;strokeWidth=1;" parent="1" vertex="1">
          <mxGeometry x="120" y="80" width="100" height="300" as="geometry" />
        </mxCell>
        <mxCell id="3nuBFxr9cyL0pnOWT2aG-2" value="" style="points=[];perimeter=orthogonalPerimeter;rounded=0;shadow=0;strokeWidth=1;" parent="3nuBFxr9cyL0pnOWT2aG-1" vertex="1">
          <mxGeometry x="45" y="70" width="10" height="190" as="geometry" />
        </mxCell>
        <mxCell id="3nuBFxr9cyL0pnOWT2aG-5" value="门禁系统(微信)" style="shape=umlLifeline;perimeter=lifelinePerimeter;container=1;collapsible=0;recursiveResize=0;rounded=0;shadow=0;strokeWidth=1;" parent="1" vertex="1">
          <mxGeometry x="300" y="80" width="100" height="300" as="geometry" />
        </mxCell>
        <mxCell id="3nuBFxr9cyL0pnOWT2aG-6" value="" style="points=[];perimeter=orthogonalPerimeter;rounded=0;shadow=0;strokeWidth=1;" parent="3nuBFxr9cyL0pnOWT2aG-5" vertex="1">
          <mxGeometry x="45" y="80" width="10" height="160" as="geometry" />
        </mxCell>
        <mxCell id="aFgjdF3cAKlBIOMiIda9-23" value="" style="endArrow=classic;html=1;exitX=0.9;exitY=0.763;exitDx=0;exitDy=0;exitPerimeter=0;" edge="1" parent="3nuBFxr9cyL0pnOWT2aG-5" source="3nuBFxr9cyL0pnOWT2aG-6" target="3nuBFxr9cyL0pnOWT2aG-5">
          <mxGeometry width="50" height="50" relative="1" as="geometry">
            <mxPoint x="170" y="240" as="sourcePoint" />
            <mxPoint x="170" y="260" as="targetPoint" />
            <Array as="points">
              <mxPoint x="130" y="210" />
            </Array>
          </mxGeometry>
        </mxCell>
        <mxCell id="aFgjdF3cAKlBIOMiIda9-24" value="验证token有效" style="edgeLabel;html=1;align=center;verticalAlign=middle;resizable=0;points=[];" vertex="1" connectable="0" parent="aFgjdF3cAKlBIOMiIda9-23">
          <mxGeometry x="-0.1366" y="-6" relative="1" as="geometry">
            <mxPoint x="-4.43" y="-11.25" as="offset" />
          </mxGeometry>
        </mxCell>
        <mxCell id="3nuBFxr9cyL0pnOWT2aG-8" value="想请求用户信息" style="verticalAlign=bottom;endArrow=block;entryX=0;entryY=0;shadow=0;strokeWidth=1;" parent="1" source="3nuBFxr9cyL0pnOWT2aG-2" target="3nuBFxr9cyL0pnOWT2aG-6" edge="1">
          <mxGeometry relative="1" as="geometry">
            <mxPoint x="275" y="160" as="sourcePoint" />
          </mxGeometry>
        </mxCell>
        <mxCell id="3nuBFxr9cyL0pnOWT2aG-9" value="问下用户愿不愿意授权" style="verticalAlign=bottom;endArrow=block;shadow=0;strokeWidth=1;" parent="1" edge="1">
          <mxGeometry relative="1" as="geometry">
            <mxPoint x="345" y="187" as="sourcePoint" />
            <mxPoint x="19.5" y="187" as="targetPoint" />
          </mxGeometry>
        </mxCell>
        <mxCell id="aFgjdF3cAKlBIOMiIda9-1" value="用户" style="shape=umlLifeline;perimeter=lifelinePerimeter;container=1;collapsible=0;recursiveResize=0;rounded=0;shadow=0;strokeWidth=1;" vertex="1" parent="1">
          <mxGeometry x="-30" y="80" width="100" height="300" as="geometry" />
        </mxCell>
        <mxCell id="aFgjdF3cAKlBIOMiIda9-2" value="" style="points=[];perimeter=orthogonalPerimeter;rounded=0;shadow=0;strokeWidth=1;" vertex="1" parent="aFgjdF3cAKlBIOMiIda9-1">
          <mxGeometry x="45" y="70" width="10" height="160" as="geometry" />
        </mxCell>
        <mxCell id="3nuBFxr9cyL0pnOWT2aG-3" value="访问" style="verticalAlign=bottom;startArrow=oval;endArrow=block;startSize=8;shadow=0;strokeWidth=1;exitX=0.9;exitY=0.006;exitDx=0;exitDy=0;exitPerimeter=0;" parent="1" target="3nuBFxr9cyL0pnOWT2aG-2" edge="1" source="aFgjdF3cAKlBIOMiIda9-2">
          <mxGeometry relative="1" as="geometry">
            <mxPoint x="105" y="150" as="sourcePoint" />
          </mxGeometry>
        </mxCell>
        <mxCell id="aFgjdF3cAKlBIOMiIda9-9" value="" style="endArrow=classic;html=1;exitX=1;exitY=0.513;exitDx=0;exitDy=0;exitPerimeter=0;" edge="1" parent="1">
          <mxGeometry width="50" height="50" relative="1" as="geometry">
            <mxPoint x="25" y="208.08000000000004" as="sourcePoint" />
            <mxPoint x="349.5" y="208.08000000000004" as="targetPoint" />
          </mxGeometry>
        </mxCell>
        <mxCell id="aFgjdF3cAKlBIOMiIda9-10" value="愿意" style="edgeLabel;html=1;align=center;verticalAlign=middle;resizable=0;points=[];" vertex="1" connectable="0" parent="aFgjdF3cAKlBIOMiIda9-9">
          <mxGeometry x="0.2265" y="2" relative="1" as="geometry">
            <mxPoint as="offset" />
          </mxGeometry>
        </mxCell>
        <mxCell id="aFgjdF3cAKlBIOMiIda9-11" value="" style="endArrow=classic;html=1;entryX=1;entryY=0.632;entryDx=0;entryDy=0;entryPerimeter=0;exitX=-0.2;exitY=0.688;exitDx=0;exitDy=0;exitPerimeter=0;" edge="1" parent="1">
          <mxGeometry width="50" height="50" relative="1" as="geometry">
            <mxPoint x="343" y="241.07999999999993" as="sourcePoint" />
            <mxPoint x="175" y="241.07999999999993" as="targetPoint" />
          </mxGeometry>
        </mxCell>
        <mxCell id="aFgjdF3cAKlBIOMiIda9-12" value="给你token" style="edgeLabel;html=1;align=center;verticalAlign=middle;resizable=0;points=[];" vertex="1" connectable="0" parent="aFgjdF3cAKlBIOMiIda9-11">
          <mxGeometry x="-0.1786" y="-1" relative="1" as="geometry">
            <mxPoint as="offset" />
          </mxGeometry>
        </mxCell>
        <mxCell id="aFgjdF3cAKlBIOMiIda9-13" value="" style="endArrow=classic;html=1;" edge="1" parent="1" source="3nuBFxr9cyL0pnOWT2aG-5" target="3nuBFxr9cyL0pnOWT2aG-5">
          <mxGeometry width="50" height="50" relative="1" as="geometry">
            <mxPoint x="460" y="280" as="sourcePoint" />
            <mxPoint x="510" y="230" as="targetPoint" />
          </mxGeometry>
        </mxCell>
        <mxCell id="aFgjdF3cAKlBIOMiIda9-14" value="生成token，1分钟有效" style="edgeLabel;html=1;align=center;verticalAlign=middle;resizable=0;points=[];" vertex="1" connectable="0" parent="aFgjdF3cAKlBIOMiIda9-13">
          <mxGeometry x="-0.1366" y="-6" relative="1" as="geometry">
            <mxPoint as="offset" />
          </mxGeometry>
        </mxCell>
        <mxCell id="aFgjdF3cAKlBIOMiIda9-15" value="请求用户电话号码，带token" style="verticalAlign=bottom;endArrow=block;entryX=0;entryY=0;shadow=0;strokeWidth=1;" edge="1" parent="1">
          <mxGeometry relative="1" as="geometry">
            <mxPoint x="170" y="270" as="sourcePoint" />
            <mxPoint x="350" y="270.0000000000001" as="targetPoint" />
          </mxGeometry>
        </mxCell>
        <mxCell id="aFgjdF3cAKlBIOMiIda9-21" value="" style="endArrow=classic;html=1;" edge="1" parent="1">
          <mxGeometry width="50" height="50" relative="1" as="geometry">
            <mxPoint x="359.5" y="230" as="sourcePoint" />
            <mxPoint x="359.5" y="250" as="targetPoint" />
          </mxGeometry>
        </mxCell>
        <mxCell id="aFgjdF3cAKlBIOMiIda9-25" value="" style="endArrow=classic;html=1;entryX=0.9;entryY=0.832;entryDx=0;entryDy=0;entryPerimeter=0;" edge="1" parent="1" source="3nuBFxr9cyL0pnOWT2aG-5" target="3nuBFxr9cyL0pnOWT2aG-2">
          <mxGeometry width="50" height="50" relative="1" as="geometry">
            <mxPoint x="353" y="251.07999999999993" as="sourcePoint" />
            <mxPoint x="185" y="251.07999999999993" as="targetPoint" />
          </mxGeometry>
        </mxCell>
        <mxCell id="aFgjdF3cAKlBIOMiIda9-26" value="给你电话号码" style="edgeLabel;html=1;align=center;verticalAlign=middle;resizable=0;points=[];" vertex="1" connectable="0" parent="aFgjdF3cAKlBIOMiIda9-25">
          <mxGeometry x="-0.1786" y="-1" relative="1" as="geometry">
            <mxPoint as="offset" />
          </mxGeometry>
        </mxCell>
      </root>
    </mxGraphModel>
  </diagram>
</mxfile>
